<svg width="206" height="206" viewBox="0 0 206 206" fill="none" xmlns="http://www.w3.org/2000/svg">
<rect x="26.0211" y="78.1867" width="4.33684" height="4.33684" fill="#3B82F6"/>
<rect x="26.0211" y="84.7023" width="4.33684" height="4.33684" fill="#3B82F6"/>
<rect x="32.5263" y="78.1867" width="4.33684" height="4.33684" fill="#3B82F6"/>
<rect x="32.5263" y="84.7023" width="4.33684" height="4.33684" fill="#3B82F6"/>
<rect x="39.0315" y="78.1867" width="4.33684" height="4.33684" fill="#3B82F6"/>
<rect x="39.0315" y="84.7023" width="4.33684" height="4.33684" fill="#3B82F6"/>
<rect x="45.5368" y="78.1867" width="4.33684" height="4.33684" fill="#3B82F6"/>
<rect x="45.5368" y="84.7023" width="4.33684" height="4.33684" fill="#3B82F6"/>
<rect x="52.0421" y="78.1867" width="4.33684" height="4.33684" fill="#3B82F6"/>
<rect x="52.0421" y="84.7023" width="4.33684" height="4.33684" fill="#3B82F6"/>
<rect x="71.5579" y="78.1867" width="4.33684" height="4.33684" fill="#3B82F6"/>
<rect x="71.5579" y="84.7023" width="4.33684" height="4.33684" fill="#3B82F6"/>
<rect x="130.105" y="78.1867" width="4.33684" height="4.33684" fill="black"/>
<rect x="130.105" y="84.7023" width="4.33684" height="4.33684" fill="black"/>
<rect x="136.611" y="78.1867" width="4.33684" height="4.33684" fill="black"/>
<rect x="136.611" y="84.7023" width="4.33684" height="4.33684" fill="black"/>
<rect x="143.116" y="78.1867" width="4.33684" height="4.33684" fill="black"/>
<rect x="143.116" y="84.7023" width="4.33684" height="4.33684" fill="black"/>
<rect x="149.621" y="78.1867" width="4.33684" height="4.33684" fill="black"/>
<rect x="162.632" y="84.7023" width="4.33684" height="4.33684" fill="black"/>
<rect x="169.137" y="78.1867" width="4.33684" height="4.33684" fill="black"/>
<rect x="169.137" y="84.7023" width="4.33684" height="4.33684" fill="black"/>
<rect x="175.642" y="78.1867" width="4.33684" height="4.33684" fill="black"/>
<rect x="175.642" y="84.7023" width="4.33684" height="4.33684" fill="black"/>
<rect x="26.0211" y="91.2178" width="4.33684" height="4.33684" fill="#3B82F6"/>
<rect x="26.0211" y="97.7334" width="4.33684" height="4.33684" fill="#3B82F6"/>
<rect x="32.5263" y="91.2178" width="4.33684" height="4.33684" fill="#3B82F6"/>
<rect x="32.5263" y="97.7334" width="4.33684" height="4.33684" fill="#3B82F6"/>
<rect x="39.0315" y="91.2178" width="4.33684" height="4.33684" fill="#3B82F6"/>
<rect x="39.0315" y="97.7334" width="4.33684" height="4.33684" fill="#3B82F6"/>
<rect x="45.5368" y="91.2178" width="4.33684" height="4.33684" fill="#3B82F6"/>
<rect x="45.5368" y="97.7334" width="4.33684" height="4.33684" fill="#3B82F6"/>
<rect x="52.0421" y="91.2178" width="4.33684" height="4.33684" fill="#3B82F6"/>
<rect x="52.0421" y="97.7334" width="4.33684" height="4.33684" fill="#3B82F6"/>
<rect x="58.5474" y="91.2178" width="4.33684" height="4.33684" fill="#3B82F6"/>
<rect x="58.5474" y="97.7334" width="4.33684" height="4.33684" fill="#3B82F6"/>
<rect x="65.0526" y="97.7334" width="4.33684" height="4.33684" fill="#3B82F6"/>
<rect x="71.5579" y="91.2178" width="4.33684" height="4.33684" fill="#3B82F6"/>
<rect x="71.5579" y="97.7334" width="4.33684" height="4.33684" fill="#3B82F6"/>
<rect x="130.105" y="91.2178" width="4.33684" height="4.33684" fill="black"/>
<rect x="130.105" y="97.7334" width="4.33684" height="4.33684" fill="black"/>
<rect x="136.611" y="91.2178" width="4.33684" height="4.33684" fill="black"/>
<rect x="136.611" y="97.7334" width="4.33684" height="4.33684" fill="black"/>
<rect x="143.116" y="91.2178" width="4.33684" height="4.33684" fill="black"/>
<rect x="143.116" y="97.7334" width="4.33684" height="4.33684" fill="black"/>
<rect x="149.621" y="97.7334" width="4.33684" height="4.33684" fill="black"/>
<rect x="156.126" y="91.2178" width="4.33684" height="4.33684" fill="black"/>
<rect x="156.126" y="97.7334" width="4.33684" height="4.33684" fill="black"/>
<rect x="162.632" y="91.2178" width="4.33684" height="4.33684" fill="black"/>
<rect x="162.632" y="97.7334" width="4.33684" height="4.33684" fill="black"/>
<rect x="169.137" y="91.2178" width="4.33684" height="4.33684" fill="black"/>
<rect x="169.137" y="97.7334" width="4.33684" height="4.33684" fill="black"/>
<rect x="175.642" y="91.2178" width="4.33684" height="4.33684" fill="black"/>
<rect x="175.642" y="97.7334" width="4.33684" height="4.33684" fill="black"/>
<rect x="26.0211" y="103.906" width="4.33684" height="4.33684" fill="#3B82F6"/>
<rect x="26.0211" y="110.422" width="4.33684" height="4.33684" fill="#3B82F6"/>
<rect x="32.5263" y="103.906" width="4.33684" height="4.33684" fill="#3B82F6"/>
<rect x="32.5263" y="110.422" width="4.33684" height="4.33684" fill="#3B82F6"/>
<rect x="39.0315" y="103.906" width="4.33684" height="4.33684" fill="#3B82F6"/>
<rect x="39.0315" y="110.422" width="4.33684" height="4.33684" fill="#3B82F6"/>
<rect x="45.5368" y="103.906" width="4.33684" height="4.33684" fill="#3B82F6"/>
<rect x="45.5368" y="110.422" width="4.33684" height="4.33684" fill="#3B82F6"/>
<rect x="52.0421" y="103.906" width="4.33684" height="4.33684" fill="#3B82F6"/>
<rect x="52.0421" y="110.422" width="4.33684" height="4.33684" fill="#3B82F6"/>
<rect x="58.5474" y="103.906" width="4.33684" height="4.33684" fill="#3B82F6"/>
<rect x="58.5474" y="110.422" width="4.33684" height="4.33684" fill="#3B82F6"/>
<rect x="65.0526" y="103.906" width="4.33684" height="4.33684" fill="#3B82F6"/>
<rect x="65.0526" y="110.422" width="4.33684" height="4.33684" fill="#3B82F6"/>
<rect x="71.5579" y="103.906" width="4.33684" height="4.33684" fill="#3B82F6"/>
<rect x="71.5579" y="110.422" width="4.33684" height="4.33684" fill="#3B82F6"/>
<rect x="130.105" y="103.906" width="4.33684" height="4.33684" fill="black"/>
<rect x="130.105" y="110.422" width="4.33684" height="4.33684" fill="black"/>
<rect x="136.611" y="103.906" width="4.33684" height="4.33684" fill="black"/>
<rect x="136.611" y="110.422" width="4.33684" height="4.33684" fill="black"/>
<rect x="143.116" y="103.906" width="4.33684" height="4.33684" fill="black"/>
<rect x="143.116" y="110.422" width="4.33684" height="4.33684" fill="black"/>
<rect x="149.621" y="103.906" width="4.33684" height="4.33684" fill="black"/>
<rect x="149.621" y="110.422" width="4.33684" height="4.33684" fill="black"/>
<rect x="156.126" y="103.906" width="4.33684" height="4.33684" fill="black"/>
<rect x="156.126" y="110.422" width="4.33684" height="4.33684" fill="black"/>
<rect x="162.632" y="103.906" width="4.33684" height="4.33684" fill="black"/>
<rect x="162.632" y="110.422" width="4.33684" height="4.33684" fill="black"/>
<rect x="169.137" y="103.906" width="4.33684" height="4.33684" fill="black"/>
<rect x="169.137" y="110.422" width="4.33684" height="4.33684" fill="black"/>
<rect x="175.642" y="103.906" width="4.33684" height="4.33684" fill="black"/>
<rect x="175.642" y="110.422" width="4.33684" height="4.33684" fill="black"/>
<rect x="26.0211" y="116.937" width="4.33684" height="4.33684" fill="#3B82F6"/>
<rect x="26.0211" y="123.453" width="4.33684" height="4.33684" fill="#3B82F6"/>
<rect x="32.5263" y="116.937" width="4.33684" height="4.33684" fill="#3B82F6"/>
<rect x="32.5263" y="123.453" width="4.33684" height="4.33684" fill="#3B82F6"/>
<rect x="39.0315" y="116.937" width="4.33684" height="4.33684" fill="#3B82F6"/>
<rect x="39.0315" y="123.453" width="4.33684" height="4.33684" fill="#3B82F6"/>
<rect x="45.5368" y="116.937" width="4.33684" height="4.33684" fill="#3B82F6"/>
<rect x="45.5368" y="123.453" width="4.33684" height="4.33684" fill="#3B82F6"/>
<rect x="52.0421" y="116.937" width="4.33684" height="4.33684" fill="#3B82F6"/>
<rect x="52.0421" y="123.453" width="4.33684" height="4.33684" fill="#3B82F6"/>
<rect x="58.5474" y="116.937" width="4.33684" height="4.33684" fill="#3B82F6"/>
<rect x="58.5474" y="123.453" width="4.33684" height="4.33684" fill="#3B82F6"/>
<rect x="65.0526" y="116.937" width="4.33684" height="4.33684" fill="#3B82F6"/>
<rect x="65.0526" y="123.453" width="4.33684" height="4.33684" fill="#3B82F6"/>
<rect x="71.5579" y="116.937" width="4.33684" height="4.33684" fill="#3B82F6"/>
<rect x="71.5579" y="123.453" width="4.33684" height="4.33684" fill="#3B82F6"/>
<rect x="130.105" y="116.937" width="4.33684" height="4.33684" fill="black"/>
<rect x="130.105" y="123.453" width="4.33684" height="4.33684" fill="black"/>
<rect x="136.611" y="116.937" width="4.33684" height="4.33684" fill="black"/>
<rect x="136.611" y="123.453" width="4.33684" height="4.33684" fill="black"/>
<rect x="143.116" y="116.937" width="4.33684" height="4.33684" fill="black"/>
<rect x="143.116" y="123.453" width="4.33684" height="4.33684" fill="black"/>
<rect x="149.621" y="116.937" width="4.33684" height="4.33684" fill="black"/>
<rect x="149.621" y="123.453" width="4.33684" height="4.33684" fill="black"/>
<rect x="156.126" y="116.937" width="4.33684" height="4.33684" fill="black"/>
<rect x="156.126" y="123.453" width="4.33684" height="4.33684" fill="black"/>
<rect x="162.632" y="116.937" width="4.33684" height="4.33684" fill="black"/>
<rect x="162.632" y="123.453" width="4.33684" height="4.33684" fill="black"/>
<rect x="169.137" y="116.937" width="4.33684" height="4.33684" fill="black"/>
<rect x="169.137" y="123.453" width="4.33684" height="4.33684" fill="black"/>
<rect x="175.642" y="116.937" width="4.33684" height="4.33684" fill="black"/>
<rect x="175.642" y="123.453" width="4.33684" height="4.33684" fill="black"/>
<rect x="45.5368" y="91.2178" width="4.33684" height="4.33684" fill="#1E40AF"/>
<rect x="52.0421" y="91.2178" width="4.33684" height="4.33684" fill="#1E40AF"/>
<rect x="39.0315" y="97.7334" width="4.33684" height="4.33684" fill="#1E40AF"/>
<rect x="45.5368" y="97.7334" width="4.33684" height="4.33684" fill="#1E40AF"/>
<rect x="52.0421" y="97.7334" width="4.33684" height="4.33684" fill="#1E40AF"/>
<rect x="58.5474" y="97.7334" width="4.33684" height="4.33684" fill="#1E40AF"/>
<rect x="39.0315" y="103.906" width="4.33684" height="4.33684" fill="#1E40AF"/>
<rect x="45.5368" y="103.906" width="4.33684" height="4.33684" fill="#1E40AF"/>
<rect x="52.0421" y="103.906" width="4.33684" height="4.33684" fill="#1E40AF"/>
<rect x="58.5474" y="103.906" width="4.33684" height="4.33684" fill="#1E40AF"/>
<rect x="45.5368" y="110.422" width="4.33684" height="4.33684" fill="#1E40AF"/>
<rect x="52.0421" y="110.422" width="4.33684" height="4.33684" fill="#1E40AF"/>
</svg>
