<svg width="206" height="206" viewBox="0 0 206 206" fill="none" xmlns="http://www.w3.org/2000/svg">
<rect x="45.5368" y="78.1867" width="4.33684" height="4.33684" fill="black"/>
<rect x="149.621" y="78.1867" width="4.33684" height="4.33684" fill="black"/>
<rect x="52.0421" y="78.1867" width="4.33684" height="4.33684" fill="black"/>
<rect x="39.0315" y="84.7023" width="4.33684" height="4.33684" fill="black"/>
<rect x="143.116" y="84.7023" width="4.33684" height="4.33684" fill="black"/>
<rect x="45.5368" y="84.7023" width="4.33684" height="4.33684" fill="black"/>
<rect x="52.0421" y="84.7023" width="4.33684" height="4.33684" fill="black"/>
<rect x="162.632" y="84.7023" width="4.33684" height="4.33684" fill="black"/>
<rect x="32.5263" y="91.2178" width="4.33684" height="4.33684" fill="black"/>
<rect x="136.611" y="91.2178" width="4.33684" height="4.33684" fill="black"/>
<rect x="39.0315" y="91.2178" width="4.33684" height="4.33684" fill="black"/>
<rect x="143.116" y="91.2178" width="4.33684" height="4.33684" fill="black"/>
<rect x="45.5368" y="91.2178" width="4.33684" height="4.33684" fill="black"/>
<rect x="52.0421" y="91.2178" width="4.33684" height="4.33684" fill="black"/>
<rect x="156.126" y="91.2178" width="4.33684" height="4.33684" fill="black"/>
<rect x="58.5474" y="91.2178" width="4.33684" height="4.33684" fill="black"/>
<rect x="162.632" y="91.2178" width="4.33684" height="4.33684" fill="black"/>
<rect x="169.137" y="91.2178" width="4.33684" height="4.33684" fill="black"/>
<rect x="26.0211" y="97.7334" width="4.33684" height="4.33684" fill="black"/>
<rect x="130.105" y="97.7334" width="4.33684" height="4.33684" fill="black"/>
<rect x="32.5263" y="97.7334" width="4.33684" height="4.33684" fill="black"/>
<rect x="136.611" y="97.7334" width="4.33684" height="4.33684" fill="black"/>
<rect x="39.0315" y="97.7334" width="4.33684" height="4.33684" fill="black"/>
<rect x="143.116" y="97.7334" width="4.33684" height="4.33684" fill="black"/>
<rect x="58.5474" y="97.7334" width="4.33684" height="4.33684" fill="black"/>
<rect x="162.632" y="97.7334" width="4.33684" height="4.33684" fill="black"/>
<rect x="65.0526" y="97.7334" width="4.33684" height="4.33684" fill="black"/>
<rect x="169.137" y="97.7334" width="4.33684" height="4.33684" fill="black"/>
<rect x="71.5579" y="97.7334" width="4.33684" height="4.33684" fill="black"/>
<rect x="175.642" y="97.7334" width="4.33684" height="4.33684" fill="black"/>
<rect x="26.0211" y="103.906" width="4.33684" height="4.33684" fill="black"/>
<rect x="130.105" y="103.906" width="4.33684" height="4.33684" fill="black"/>
<rect x="32.5263" y="103.906" width="4.33684" height="4.33684" fill="black"/>
<rect x="136.611" y="103.906" width="4.33684" height="4.33684" fill="black"/>
<rect x="65.0526" y="103.906" width="4.33684" height="4.33684" fill="black"/>
<rect x="169.137" y="103.906" width="4.33684" height="4.33684" fill="black"/>
<rect x="71.5579" y="103.906" width="4.33684" height="4.33684" fill="black"/>
<rect x="175.642" y="103.906" width="4.33684" height="4.33684" fill="black"/>
</svg>
